# xmcd
#
# Track frame offsets:
# 150
# 14025
# 23402
# 43802
# 53780
# 69830
# 85132
# 96310
# 109360
# 134485
# 144467
# 155410
# 176570
# 184820
# 202292
#
# Disc length: 2848 seconds
#
#
# Revision: 0
# Processed by: cddbd v1.4PL0 Copyright (c) Steve Scherf et al.
# Submitted via: FreeRIP 2.11 
#
DISCID=d70b1e0f
DTITLE=Bar J Wranglers  - Bar J Wranglers 
DYEAR=1900
DGENRE=Folk
TTITLE0=Bar J Wranglers - Ride an old Paint
TTITLE1=Bar J Wranglers - Headin foe the Home Corral
TTITLE2=Bar J Wranglers - Littlt Joe the Wrangler
TTITLE3=Bar J Wranglers - Uncle Pen
TTITLE4=Bar J Wranglers - When the Works All Done This Fall
TTITLE5=Bar J Wranglers - Ridin' for the Roundup
TTITLE6=Bar J Wranglers - Sweet Georgia Brown
TTITLE7=Bar J Wranglers - Pinto Pal
TTITLE8=Bar J Wranglers - Song of Wyoming
TTITLE9=Bar J Wranglers - Down the Trail to San Antone
TTITLE10=Bar J Wranglers - Cattle Call
TTITLE11=Bar J Wranglers - I'm my own Grandpa
TTITLE12=Bar J Wranglers - Boil the Cabbage
TTITLE13=Bar J Wranglers - The Old Rugged Cross
TTITLE14=Bar J Wranglers - Night Herding Song
EXTD=
EXTT0=
EXTT1=
EXTT2=
EXTT3=
EXTT4=
EXTT5=
EXTT6=
EXTT7=
EXTT8=
EXTT9=
EXTT10=
EXTT11=
EXTT12=
EXTT13=
EXTT14=
PLAYORDER=
